<?xml version="1.0" encoding="utf-8"?>
<!-- Generator: Adobe Illustrator 19.2.0, SVG Export Plug-In . SVG Version: 6.00 Build 0)  -->
<svg version="1.1" id="Capa_1" xmlns="http://www.w3.org/2000/svg" xmlns:xlink="http://www.w3.org/1999/xlink" x="0px" y="0px"
	 viewBox="0 0 217 152.6" style="enable-background:new 0 0 217 152.6;" xml:space="preserve">
<style type="text/css">
	.st0{fill:#010002;}
</style>
<g>
	<g>
		<g>
			<path class="st0" d="M39.9,76.3c0,40.6,32.9,73.4,73.4,73.4s73.4-32.9,73.4-73.4S153.8,2.9,113.3,2.9
				C72.7,2.9,39.9,35.8,39.9,76.3z M127,53.3l0.9-1l2.1-1.5l0.1-0.1l0.1-0.1l1.6-0.7l0,0.1c1.5-0.6,3-1,4.7-1
				c7.5,0,13.5,6.3,13.5,14s-6,14-13.5,14c-2.4,0-4.6-0.7-6.6-1.8c0.7,7.5,4.5,18.4,18.3,29.6c1.9,1.6,2.3,4.5,0.8,6.5
				c-0.9,1.2-2.2,1.8-3.5,1.8c-1,0-1.9-0.3-2.7-1c-17-13.7-21.3-27.8-21.8-37.2C120,62.9,123.6,56.6,127,53.3z M82.5,53.3l0.9-1
				l2.1-1.5l0.1-0.1l0.1-0.1l1.6-0.7l-0.1,0.1c1.5-0.6,3-1,4.7-1c7.5,0,13.5,6.3,13.5,14s-6.1,14-13.5,14c-2.4,0-4.6-0.7-6.6-1.8
				c0.7,7.5,4.5,18.4,18.3,29.6c1.9,1.6,2.3,4.5,0.8,6.5c-0.9,1.2-2.2,1.8-3.5,1.8c-1,0-1.9-0.3-2.7-1C81.3,98.5,77,84.4,76.4,75
				C75.5,62.9,79.1,56.6,82.5,53.3z"/>
		</g>
	</g>
</g>
</svg>
